<svg xmlns="http://www.w3.org/2000/svg" width="220" height="48" viewBox="0 0 220 48" fill="none">
  <rect x="2" y="2" width="44" height="44" rx="12" fill="#2563EB"/>
  <path d="M15 31V17h8.8c3 0 5.2 1.9 5.2 4.4 0 1.7-1 2.9-2.5 3.6 1.8.6 3.2 2 3.2 4.1 0 2.9-2.5 4.9-6 4.9H15Zm5.4-8.7h3.2c1.2 0 2-.7 2-1.8 0-1.1-.8-1.8-2-1.8h-3.2v3.6Zm0 5.2h3.7c1.4 0 2.2-.8 2.2-1.9 0-1.2-.8-2-2.2-2h-3.7v3.9Z" fill="white"/>
  <text x="58" y="31" fill="currentColor" font-family="Inter, Arial, sans-serif" font-size="22" font-weight="700">BetStan</text>
</svg>
